<svg width="1024" height="1024" viewBox="0 0 1024 1024" fill="none" xmlns="http://www.w3.org/2000/svg">
<path d="M412 312C402.111 312 392.444 314.932 384.222 320.426C375.999 325.921 369.59 333.729 365.806 342.866C362.022 352.002 361.031 362.055 362.961 371.754C364.89 381.454 369.652 390.363 376.645 397.355C383.637 404.348 392.546 409.11 402.246 411.039C411.945 412.968 421.998 411.978 431.134 408.194C440.27 404.41 448.079 398.001 453.574 389.778C459.068 381.556 462 371.889 462 362C462.065 355.416 460.816 348.885 458.326 342.789C455.836 336.694 452.156 331.156 447.5 326.5C442.844 321.844 437.306 318.164 431.211 315.674C425.115 313.184 418.584 311.935 412 312Z" fill="#F9F9F9"/>
</svg>
