<svg width="1024" height="1024" viewBox="0 0 1024 1024" fill="none" xmlns="http://www.w3.org/2000/svg">
<path d="M612 312C602.111 312 592.444 314.932 584.221 320.426C575.999 325.921 569.59 333.729 565.806 342.866C562.022 352.002 561.031 362.055 562.961 371.754C564.89 381.454 569.652 390.363 576.645 397.355C583.637 404.348 592.546 409.11 602.246 411.039C611.945 412.968 621.998 411.978 631.134 408.194C640.271 404.41 648.079 398.001 653.574 389.778C659.068 381.556 662 371.889 662 362C662.065 355.416 660.816 348.885 658.326 342.789C655.836 336.694 652.156 331.156 647.5 326.5C642.844 321.844 637.306 318.164 631.211 315.674C625.115 313.184 618.584 311.935 612 312Z" fill="#F9F9F9"/>
</svg>
