<svg width="1024" height="1024" viewBox="0 0 1024 1024" fill="none" xmlns="http://www.w3.org/2000/svg">
<path d="M555.395 862L512 837L612 662H762C768.569 662.011 775.076 660.726 781.147 658.217C787.219 655.708 792.735 652.025 797.38 647.38C802.025 642.735 805.708 637.219 808.217 631.147C810.726 625.076 812.011 618.569 812 612V262C812.011 255.431 810.726 248.924 808.217 242.853C805.708 236.781 802.025 231.265 797.38 226.62C792.735 221.975 787.219 218.292 781.147 215.783C775.076 213.274 768.569 211.989 762 212H262C255.431 211.989 248.924 213.274 242.853 215.783C236.781 218.292 231.265 221.975 226.62 226.62C221.975 231.265 218.292 236.781 215.783 242.853C213.274 248.924 211.989 255.431 212 262V612C211.989 618.569 213.274 625.076 215.783 631.147C218.292 637.219 221.975 642.735 226.62 647.38C231.265 652.025 236.781 655.708 242.853 658.217C248.924 660.726 255.431 662.011 262 662H487V712H262C248.867 712.002 235.863 709.417 223.729 704.393C211.595 699.368 200.571 692.002 191.284 682.716C181.998 673.429 174.632 662.405 169.607 650.271C164.583 638.137 161.998 625.133 162 612V262C161.996 248.867 164.58 235.861 169.604 223.727C174.628 211.593 181.994 200.567 191.281 191.281C200.567 181.994 211.593 174.628 223.727 169.604C235.861 164.58 248.867 161.996 262 162H762C775.133 161.996 788.139 164.58 800.273 169.604C812.407 174.628 823.433 181.994 832.719 191.281C842.006 200.567 849.372 211.593 854.396 223.727C859.42 235.861 862.004 248.867 862 262V612C862.002 625.133 859.417 638.137 854.393 650.271C849.368 662.405 842.002 673.429 832.716 682.716C823.429 692.002 812.405 699.368 800.271 704.393C788.137 709.417 775.133 712.002 762 712H641.115L555.395 862Z" fill="#F9F9F9"/>
</svg>
