<svg width="280" height="280" viewBox="0 0 280 280" fill="none" xmlns="http://www.w3.org/2000/svg">
<g clip-path="url(#clip0_1_38)">
<path d="M140 155C134.225 155.005 128.538 153.579 123.449 150.849C118.359 148.119 114.026 144.17 110.835 139.357L119.165 133.82C121.446 137.257 124.542 140.077 128.177 142.028C131.813 143.979 135.874 145 140 145C144.126 145 148.187 143.979 151.823 142.028C155.458 140.077 158.554 137.257 160.835 133.82L169.165 139.357C165.974 144.17 161.641 148.119 156.551 150.849C151.462 153.579 145.775 155.005 140 155Z" fill="url(#paint0_linear_1_38)"/>
<path d="M160 100C158.022 100 156.089 100.586 154.444 101.685C152.8 102.784 151.518 104.346 150.761 106.173C150.004 108 149.806 110.011 150.192 111.951C150.578 113.891 151.53 115.673 152.929 117.071C154.327 118.47 156.109 119.422 158.049 119.808C159.989 120.194 162 119.996 163.827 119.239C165.654 118.482 167.216 117.2 168.315 115.556C169.413 113.911 170 111.978 170 110C170.013 108.683 169.763 107.377 169.265 106.158C168.767 104.939 168.031 103.831 167.1 102.9C166.169 101.969 165.061 101.233 163.842 100.735C162.623 100.237 161.317 99.987 160 100Z" fill="url(#paint1_linear_1_38)"/>
<path d="M120 100C118.022 100 116.089 100.586 114.444 101.685C112.8 102.784 111.518 104.346 110.761 106.173C110.004 108 109.806 110.011 110.192 111.951C110.578 113.891 111.53 115.673 112.929 117.071C114.327 118.47 116.109 119.422 118.049 119.808C119.989 120.194 122 119.996 123.827 119.239C125.654 118.482 127.216 117.2 128.315 115.556C129.414 113.911 130 111.978 130 110C130.013 108.683 129.763 107.377 129.265 106.158C128.767 104.939 128.031 103.831 127.1 102.9C126.169 101.969 125.061 101.233 123.842 100.735C122.623 100.237 121.317 99.987 120 100Z" fill="url(#paint2_linear_1_38)"/>
<path d="M148.679 210L140 205L160 170H190C191.314 170.002 192.615 169.745 193.829 169.243C195.044 168.742 196.147 168.005 197.076 167.076C198.005 166.147 198.742 165.044 199.243 163.829C199.745 162.615 200.002 161.314 200 160V90C200.002 88.6862 199.745 87.3848 199.243 86.1705C198.742 84.9563 198.005 83.853 197.076 82.9239C196.147 81.9949 195.044 81.2584 193.829 80.7566C192.615 80.2549 191.314 79.9978 190 80H90C88.6862 79.9978 87.3848 80.2549 86.1705 80.7566C84.9563 81.2584 83.853 81.9949 82.9239 82.9239C81.9949 83.853 81.2584 84.9563 80.7566 86.1705C80.2549 87.3848 79.9978 88.6862 80 90V160C79.9978 161.314 80.2549 162.615 80.7566 163.829C81.2584 165.044 81.9949 166.147 82.9239 167.076C83.853 168.005 84.9563 168.742 86.1705 169.243C87.3848 169.745 88.6862 170.002 90 170H135V180H90C87.3734 180 84.7725 179.483 82.3458 178.479C79.9191 177.474 77.7141 176 75.8568 174.143C73.9996 172.286 72.5264 170.081 71.5215 167.654C70.5165 165.227 69.9995 162.627 70 160V90C69.9992 87.3733 70.516 84.7723 71.5208 82.3454C72.5256 79.9185 73.9988 77.7134 75.8561 75.8561C77.7134 73.9988 79.9185 72.5256 82.3454 71.5208C84.7723 70.516 87.3733 69.9992 90 70H190C192.627 69.9992 195.228 70.516 197.655 71.5208C200.081 72.5256 202.287 73.9988 204.144 75.8561C206.001 77.7134 207.474 79.9185 208.479 82.3454C209.484 84.7723 210.001 87.3733 210 90V160C210 162.627 209.483 165.227 208.479 167.654C207.474 170.081 206 172.286 204.143 174.143C202.286 176 200.081 177.474 197.654 178.479C195.227 179.483 192.627 180 190 180H165.823L148.679 210Z" fill="url(#paint3_linear_1_38)"/>
</g>
<defs>
<linearGradient id="paint0_linear_1_38" x1="169.165" y1="133.82" x2="155.575" y2="171.246" gradientUnits="userSpaceOnUse">
<stop stop-color="#CAB6FA"/>
<stop offset="1" stop-color="#7B7CE0"/>
</linearGradient>
<linearGradient id="paint1_linear_1_38" x1="170" y1="99.9995" x2="150" y2="120" gradientUnits="userSpaceOnUse">
<stop stop-color="#CAB6FA"/>
<stop offset="1" stop-color="#7B7CE0"/>
</linearGradient>
<linearGradient id="paint2_linear_1_38" x1="130" y1="99.9995" x2="110" y2="120" gradientUnits="userSpaceOnUse">
<stop stop-color="#CAB6FA"/>
<stop offset="1" stop-color="#7B7CE0"/>
</linearGradient>
<linearGradient id="paint3_linear_1_38" x1="210" y1="70" x2="70" y2="210" gradientUnits="userSpaceOnUse">
<stop stop-color="#CAB6FA"/>
<stop offset="1" stop-color="#7B7CE0"/>
</linearGradient>
<clipPath id="clip0_1_38">
<rect width="160" height="160" fill="white" transform="translate(60 60)"/>
</clipPath>
</defs>
</svg>
